<svg width="90" height="41" viewBox="0 0 90 41" fill="none" xmlns="http://www.w3.org/2000/svg">
<path d="M4.88517 40H0.0663452V22.1534H12.1459C13.4447 22.1534 14.5445 22.2877 15.445 22.5561C16.3542 22.8245 17.0903 23.2055 17.6531 23.6991C18.2246 24.1927 18.6359 24.7902 18.887 25.4915C19.1468 26.1843 19.2767 26.9593 19.2767 27.8165C19.2767 28.5699 19.1684 29.228 18.952 29.7908C18.7442 30.3537 18.4584 30.8386 18.0947 31.2456C17.7397 31.6439 17.324 31.9816 16.8478 32.2587C16.3715 32.5358 15.8693 32.7652 15.3411 32.9471L21.186 40H15.5489L10.1456 33.4277H4.88517V40ZM14.4059 27.7906C14.4059 27.4442 14.3583 27.1498 14.263 26.9073C14.1764 26.6649 14.0206 26.47 13.7954 26.3228C13.5703 26.167 13.2672 26.0544 12.8862 25.9851C12.5139 25.9158 12.0463 25.8812 11.4834 25.8812H4.88517V29.6999H11.4834C12.0463 29.6999 12.5139 29.6653 12.8862 29.596C13.2672 29.5267 13.5703 29.4185 13.7954 29.2713C14.0206 29.1154 14.1764 28.9162 14.263 28.6738C14.3583 28.4313 14.4059 28.1369 14.4059 27.7906Z" fill="white"/>
<path d="M23.577 40V22.1534H28.3958V40H23.577Z" fill="white"/>
<path d="M31.8908 40V36.2722L43.6197 26.0631H32.2415V22.1534H50.5427V25.4266L38.2813 36.0904H50.8024V40H31.8908Z" fill="white"/>
<path d="M53.0895 40V36.2722L64.8183 26.0631H53.4402V22.1534H71.7413V25.4266L59.4799 36.0904H72.0011V40H53.0895Z" fill="white"/>
<path d="M68.3152 14.965H71.6466C71.6217 16.7051 70.1798 18.0972 68.4395 18.0972H66.8484C65.4562 18.0972 64.3126 16.9537 64.3126 15.5616V6.41358C64.3126 6.23957 64.5115 6.23957 64.6856 6.339C65.2076 6.56273 66.028 7.03505 66.6496 7.97968C67.4202 9.12318 67.4203 10.2667 67.3954 10.6644V14.0701C67.3954 14.5672 67.7932 14.965 68.3152 14.965ZM67.1219 4.69832C65.5557 4.69832 64.3126 3.43053 64.3126 1.88928V0.348039C64.3126 0.223746 64.4121 0.12431 64.5364 0.12431H65.1082C66.3512 0.12431 67.3457 1.11866 67.3457 2.3616V4.44973C67.3457 4.59889 67.2462 4.69832 67.1219 4.69832Z" fill="url(#paint0_linear_2_802)"/>
<path d="M48.1998 14.965H51.5312C51.5063 16.7051 50.0644 18.0972 48.3241 18.0972H46.733C45.3408 18.0972 44.1972 16.9537 44.1972 15.5616V6.41358C44.1972 6.23957 44.3961 6.23957 44.5701 6.339C45.0922 6.56273 45.9126 7.03505 46.5341 7.97968C47.3048 9.12318 47.3048 10.2667 47.2799 10.6644V14.0701C47.2799 14.5672 47.6777 14.965 48.1998 14.965ZM47.0065 4.69832C45.4403 4.69832 44.1972 3.43053 44.1972 1.88928V0.348039C44.1972 0.223746 44.2966 0.12431 44.421 0.12431H44.9928C46.2358 0.12431 47.2302 1.11866 47.2302 2.3616V4.44973C47.2302 4.59889 47.1308 4.69832 47.0065 4.69832Z" fill="url(#paint1_linear_2_802)"/>
<path d="M61.7812 15.1141H66.2562C66.3308 16.7548 65.0131 18.1221 63.3723 18.0972L56.3616 18.0723C56.1876 18.0972 55.9887 18.1221 55.8146 18.1221C54.8699 18.1221 53.9998 17.8983 53.2043 17.5254C53.0054 17.426 52.7568 17.5752 52.7568 17.7989V18.0723H51.8618C50.6187 18.0723 49.6243 17.078 49.6243 15.8599L49.5994 0.124312C49.5994 0.124312 50.0221 0.372899 50.5442 0.646346C51.8866 1.36725 52.7319 2.73448 52.7319 4.25087L52.7568 6.96047C53.7015 6.41358 54.8451 6.11527 56.0135 6.14013C59.146 6.26443 61.6818 8.80002 61.7812 11.9074C61.831 12.8023 61.6569 13.6723 61.3337 14.443C61.1846 14.7661 61.4332 15.1141 61.7812 15.1141ZM58.7482 12.33C58.9471 10.4656 57.356 8.87459 55.4666 9.07347C54.0744 9.19776 52.9557 10.3413 52.8065 11.7334C52.6325 13.6226 54.1987 15.1887 56.0881 15.0147C57.4803 14.8656 58.5991 13.7469 58.7482 12.33Z" fill="url(#paint2_linear_2_802)"/>
<path d="M41.7037 15.1141H46.1786C46.2532 16.7548 44.9356 18.1221 43.2948 18.0972L36.284 18.0723C36.11 18.0972 35.9111 18.1221 35.7371 18.1221C34.7924 18.1221 33.9222 17.8983 33.1267 17.5254C32.9278 17.426 32.6792 17.5752 32.6792 17.7989V18.0723H31.7842C30.5412 18.0723 29.5467 17.078 29.5467 15.8599L29.5219 0.124312C29.5219 0.124312 29.9445 0.372899 30.4666 0.646346C31.8091 1.36725 32.6543 2.73448 32.6543 4.25087L32.6792 6.96047C33.6239 6.41358 34.7675 6.11527 35.9359 6.14013C39.0684 6.26443 41.6042 8.80002 41.7037 11.9074C41.7534 12.8023 41.5794 13.6723 41.2562 14.443C41.107 14.7661 41.3556 15.1141 41.7037 15.1141ZM38.6706 12.33C38.8695 10.4656 37.2784 8.87459 35.389 9.07347C33.9968 9.19776 32.8781 10.3413 32.7289 11.7334C32.5549 13.6226 34.1211 15.1887 36.0105 15.0147C37.4027 14.8656 38.5215 13.7469 38.6706 12.33Z" fill="url(#paint3_linear_2_802)"/>
<path d="M27.717 15.0396L31.4959 15.0893C31.5456 16.73 30.2031 18.0972 28.5623 18.0972L23.9879 18.0723C23.8139 18.0723 23.6896 17.948 23.6896 17.774C23.6896 17.5254 23.4161 17.3763 23.2172 17.4757C22.372 17.8983 21.4272 18.0972 20.4079 18.0723C17.3501 17.9978 14.8143 15.5616 14.6154 12.5288C14.3668 9.02375 17.1263 6.11527 20.582 6.11527C21.5267 6.11527 22.546 6.339 23.3664 6.73674C23.5901 6.83618 23.8387 6.68702 23.8387 6.43843V5.96612C23.8387 5.96612 24.5846 6.36386 25.3552 6.7616C26.2502 7.25877 26.7972 8.17855 26.822 9.1729L26.8966 14.1944C26.8966 14.6667 27.2695 15.0396 27.717 15.0396ZM23.2918 13.5232C23.5404 13.1006 23.6647 12.6034 23.6647 12.1062C23.6647 11.6091 23.5404 11.1119 23.2918 10.6893C23.0929 10.217 22.5211 9.71979 22.0985 9.4712C21.6013 9.27233 21.2284 9.12318 20.6814 9.12318C19.8361 9.12318 19.1898 9.42149 18.5682 9.99324C18.4439 10.1424 18.3196 10.2667 18.1953 10.4407C18.1705 10.4656 18.1456 10.5153 18.1207 10.565C18.071 10.6396 18.0213 10.7141 17.9964 10.8136C17.9716 10.8633 17.9467 10.8882 17.9219 10.9379C17.897 11.0373 17.8473 11.1119 17.8224 11.2113C17.7478 11.5096 17.6981 11.8079 17.6981 12.1062C17.6981 12.4045 17.7478 12.7028 17.8224 13.0011C17.8473 13.0757 17.897 13.1752 17.9219 13.2746C17.9467 13.3243 17.9716 13.3492 17.9964 13.3989C18.0213 13.4735 18.071 13.5729 18.1207 13.6475C18.1456 13.6972 18.1705 13.7469 18.1953 13.7718C18.3196 13.9209 18.4439 14.0701 18.5682 14.2192C19.1152 14.7661 19.861 15.0893 20.6814 15.0893C21.651 15.0893 22.9189 14.4678 23.2918 13.5232Z" fill="url(#paint4_linear_2_802)"/>
<path d="M13.3751 15.139H16.5573C16.6319 16.8294 15.2645 18.2215 13.574 18.1718L11.5851 18.122C10.367 18.122 9.39739 17.1525 9.39739 15.9593V12.1559C9.39739 10.5153 7.98032 9.17288 6.24007 9.17288C4.49981 9.17288 3.08274 10.5153 3.08274 12.1559V18.122H2.61039C1.16846 18.122 0 16.9537 0 15.5119V0L1.06902 0.522035C2.31206 1.1435 3.08274 2.4113 3.08274 3.80339V6.23955C3.08274 6.61243 3.48052 6.86102 3.82857 6.71186C4.59925 6.36384 5.44452 6.16497 6.31465 6.16497C8.85045 6.16497 11.0133 7.73107 11.9083 9.96836C12.1569 10.6395 12.3061 11.3853 12.3061 12.1311V14.0701C12.3061 14.6667 12.7785 15.139 13.3751 15.139Z" fill="url(#paint5_linear_2_802)"/>
<defs>
<linearGradient id="paint0_linear_2_802" x1="65.1333" y1="0.96234" x2="44.4013" y2="34.9851" gradientUnits="userSpaceOnUse">
<stop stop-color="#F66ABF"/>
<stop offset="0.981094" stop-color="#C875FF"/>
</linearGradient>
<linearGradient id="paint1_linear_2_802" x1="65.1333" y1="0.96234" x2="44.4013" y2="34.9851" gradientUnits="userSpaceOnUse">
<stop stop-color="#F66ABF"/>
<stop offset="0.981094" stop-color="#C875FF"/>
</linearGradient>
<linearGradient id="paint2_linear_2_802" x1="65.1333" y1="0.96234" x2="44.4013" y2="34.9851" gradientUnits="userSpaceOnUse">
<stop stop-color="#F66ABF"/>
<stop offset="0.981094" stop-color="#C875FF"/>
</linearGradient>
<linearGradient id="paint3_linear_2_802" x1="65.1333" y1="0.96234" x2="44.4013" y2="34.9851" gradientUnits="userSpaceOnUse">
<stop stop-color="#F66ABF"/>
<stop offset="0.981094" stop-color="#C875FF"/>
</linearGradient>
<linearGradient id="paint4_linear_2_802" x1="65.1333" y1="0.96234" x2="44.4013" y2="34.9851" gradientUnits="userSpaceOnUse">
<stop stop-color="#F66ABF"/>
<stop offset="0.981094" stop-color="#C875FF"/>
</linearGradient>
<linearGradient id="paint5_linear_2_802" x1="65.1333" y1="0.96234" x2="44.4013" y2="34.9851" gradientUnits="userSpaceOnUse">
<stop stop-color="#F66ABF"/>
<stop offset="0.981094" stop-color="#C875FF"/>
</linearGradient>
</defs>
</svg>
